<?xml version="1.0" standalone="no"?>
<!DOCTYPE svg PUBLIC "-//W3C//DTD SVG 20010904//EN"
 "http://www.w3.org/TR/2001/REC-SVG-20010904/DTD/svg10.dtd">
<svg version="1.0" xmlns="http://www.w3.org/2000/svg"
 width="450.000000pt" height="450.000000pt" viewBox="0 0 450.000000 450.000000"
 preserveAspectRatio="xMidYMid meet">
<metadata>
Created by potrace 1.14, written by Peter Selinger 2001-2017
</metadata>
<g transform="translate(0.000000,450.000000) scale(0.100000,-0.100000)"
fill="#000000" stroke="none">
<path d="M3687 4175 c-27 -25 -54 -45 -60 -46 -12 -1 -71 1 -117 4 -20 2 -25
-3 -25 -23 -1 -14 9 -45 22 -69 l24 -45 -30 -48 c-31 -49 -34 -59 -32 -92 1
-19 21 -20 127 -1 27 5 38 0 80 -40 26 -25 53 -44 60 -41 6 2 16 24 20 48 10
54 9 49 17 73 4 12 34 34 72 53 54 26 65 36 65 57 0 21 -10 29 -65 54 -36 16
-65 33 -66 38 0 4 -3 20 -5 36 -2 15 -6 39 -7 55 -5 40 -26 37 -80 -13z"/>
<path d="M1996 4036 c-82 -23 -151 -47 -154 -54 -4 -14 234 -259 244 -250 7 8
83 306 84 331 0 22 -1 22 -174 -27z"/>
<path d="M2910 4032 c-25 -20 -30 -63 -9 -88 15 -19 77 -13 91 8 15 25 8 67
-14 82 -29 20 -41 20 -68 -2z"/>
<path d="M1404 3894 c-113 -55 -45 -227 76 -194 46 12 70 46 70 97 0 81 -76
131 -146 97z"/>
<path d="M2565 3873 c-133 -22 -227 -62 -318 -137 -31 -25 -75 -50 -99 -56
-23 -7 -65 -23 -92 -36 -48 -24 -50 -24 -98 -8 -108 36 -245 21 -374 -41 -67
-32 -79 -35 -108 -25 -56 18 -129 -5 -164 -52 -9 -13 -27 -18 -61 -18 -58 0
-120 -40 -141 -89 -31 -76 17 -186 101 -229 26 -14 26 -15 23 -104 -2 -49 0
-107 5 -129 5 -21 6 -39 2 -40 -3 0 -38 -2 -78 -4 -238 -11 -418 -112 -491
-274 -20 -46 -25 -71 -25 -139 1 -73 5 -91 32 -147 66 -133 163 -194 321 -200
117 -5 170 6 380 75 101 34 202 63 225 67 40 5 43 3 83 -43 l41 -48 -49 -17
c-51 -18 -110 -49 -110 -59 0 -3 -14 -21 -30 -40 -35 -40 -89 -142 -115 -215
-24 -65 -23 -65 -80 -70 -26 -3 -61 -13 -77 -22 -94 -56 -141 -260 -86 -372
17 -34 39 -57 88 -88 71 -47 76 -53 84 -103 3 -19 8 -46 11 -60 3 -14 8 -36
11 -50 17 -90 87 -249 145 -335 49 -72 107 -131 169 -175 19 -13 37 -27 40
-30 3 -4 41 -31 84 -60 95 -63 135 -103 138 -133 0 -12 2 -26 3 -32 2 -5 3
-18 4 -27 2 -34 250 -98 360 -94 91 4 93 4 319 72 7 2 12 21 12 50 0 43 4 51
48 93 27 25 87 72 134 104 233 159 347 337 404 632 18 96 31 119 79 140 45 19
92 70 107 118 30 88 1 246 -58 316 -24 29 -98 66 -114 56 -21 -13 -59 15 -70
52 -17 50 -88 193 -106 210 -15 15 -19 27 -6 20 13 -9 107 -18 169 -18 118 1
225 77 253 181 9 33 14 38 33 34 12 -3 57 -5 100 -5 177 -1 299 59 369 181
132 230 8 483 -277 566 -107 31 -328 23 -439 -16 -16 -6 -31 -9 -32 -7 -2 2 1
19 6 38 10 34 19 88 22 142 2 24 6 27 37 27 59 0 114 23 156 65 77 77 108 183
78 271 -49 146 -240 209 -360 118 l-32 -24 -58 58 c-91 92 -198 149 -338 178
-28 6 -166 11 -190 7z m782 -332 c52 -21 91 -99 73 -146 -12 -32 -62 -56 -106
-52 -41 5 -53 14 -59 46 -8 40 -16 65 -33 98 -19 38 -11 51 40 62 41 9 45 9
85 -8z"/>
<path d="M746 3792 c-3 -5 -7 -35 -10 -67 -5 -61 -16 -77 -95 -134 -42 -31 -4
-74 74 -85 22 -3 41 -5 41 -6 1 0 6 -19 12 -43 6 -23 22 -53 35 -66 l25 -22
46 60 c48 62 54 65 138 76 26 3 50 10 53 14 2 5 -11 28 -30 52 -41 51 -41 53
-16 123 16 46 17 56 4 79 -17 33 -24 33 -91 2 -67 -31 -73 -31 -122 0 -42 27
-56 30 -64 17z"/>
<path d="M3960 3419 c-92 -26 -270 -131 -335 -199 -35 -36 -29 -37 38 -6 150
68 214 66 317 -8 126 -91 209 -103 276 -41 85 79 46 209 -74 250 -50 17 -167
19 -222 4z"/>
<path d="M440 3275 c-75 -16 -102 -28 -144 -66 -45 -39 -65 -75 -70 -126 -7
-75 34 -141 106 -173 80 -35 144 -12 259 96 50 47 105 91 122 98 54 22 166 13
316 -25 41 -10 77 -17 79 -14 6 6 9 4 -53 42 -106 67 -315 153 -405 168 -73
13 -151 13 -210 0z"/>
<path d="M607 2102 c-36 -39 -7 -102 46 -102 10 0 15 -4 12 -10 -3 -5 1 -33
10 -62 8 -28 15 -52 15 -53 0 -1 -15 -22 -34 -46 -19 -23 -32 -47 -30 -51 3
-4 29 -8 58 -8 57 0 71 -8 105 -58 13 -18 28 -31 34 -29 6 2 19 26 28 53 15
44 22 51 66 67 75 28 75 32 11 80 -36 26 -38 31 -38 81 0 29 -3 55 -6 59 -4 3
-27 -8 -51 -24 -46 -32 -64 -33 -127 -9 l-29 11 20 22 c24 25 22 65 -4 85 -24
18 -67 15 -86 -6z"/>
<path d="M3691 2014 c-41 -17 -58 -35 -75 -76 -26 -63 2 -141 62 -172 15 -8
50 -13 77 -12 84 2 135 57 130 140 -4 93 -108 156 -194 120z"/>
</g>
</svg>
