<?xml version="1.0" encoding="UTF-8"?><!DOCTYPE svg PUBLIC "-//W3C//DTD SVG 1.1//EN" "http://www.w3.org/Graphics/SVG/1.1/DTD/svg11.dtd"><svg xmlns="http://www.w3.org/2000/svg" xmlns:xlink="http://www.w3.org/1999/xlink"><symbol id="soc-fb" viewBox="0 0 25 25"><rect width="25" height="25" fill="#282A33" rx="5"/><path fill="#fff" d="m17.862 15.86.57-3.717h-3.566v-2.41c0-1.018.497-2.01 2.094-2.01h1.622V4.56s-1.471-.251-2.877-.251c-2.938 0-4.857 1.78-4.857 5.002v2.833H7.583v3.716h3.265v8.985a12.93 12.93 0 0 0 2.009.156c.683 0 1.354-.053 2.009-.156V15.86h2.996Z"/></symbol><symbol id="soc-tg" viewBox="0 0 25 25"><rect width="25" height="25" fill="#282A33" rx="5"/><path fill="#fff" d="M5.222 12.088c1.503-.827 3.18-1.518 4.748-2.213 2.697-1.137 5.405-2.255 8.14-3.296.532-.177 1.488-.35 1.582.438-.052 1.116-.263 2.226-.408 3.335-.367 2.44-.792 4.873-1.207 7.305-.143.81-1.157 1.23-1.807.711-1.56-1.054-3.133-2.098-4.674-3.177-.505-.513-.037-1.249.414-1.615 1.286-1.267 2.649-2.343 3.867-3.675.329-.794-.642-.125-.963.08-1.76 1.212-3.476 2.5-5.331 3.565-.948.522-2.052.076-3-.215-.849-.352-2.094-.706-1.361-1.242Z"/></symbol><symbol id="soc-vk" viewBox="0 0 25 25"><rect width="25" height="25" fill="#282A33" rx="5"/><path fill="#fff" fill-rule="evenodd" d="M20.119 8.532c.12-.38 0-.658-.533-.658h-1.769c-.446 0-.652.243-.772.502 0 0-.91 2.216-2.181 3.653-.412.415-.601.554-.824.554-.12 0-.275-.139-.275-.52V8.516c0-.45-.138-.658-.515-.658h-2.782a.428.428 0 0 0-.447.416c0 .432.636.536.704 1.748v2.631c0 .571-.103.675-.326.675-.601 0-2.06-2.233-2.936-4.777-.172-.502-.344-.693-.79-.693H4.887c-.515 0-.601.243-.601.502 0 .468.6 2.822 2.799 5.938 1.46 2.129 3.537 3.271 5.41 3.271 1.132 0 1.27-.26 1.27-.692v-1.61c0-.52.103-.606.463-.606.258 0 .722.139 1.77 1.16 1.201 1.212 1.407 1.766 2.077 1.766h1.769c.515 0 .755-.26.618-.762-.155-.502-.738-1.229-1.494-2.095-.412-.484-1.03-1.02-1.22-1.28-.257-.347-.188-.485 0-.797-.016 0 2.147-3.081 2.37-4.12Z" clip-rule="evenodd"/></symbol></svg>