<?xml version="1.0" standalone="no"?>
<!DOCTYPE svg PUBLIC "-//W3C//DTD SVG 20010904//EN"
 "http://www.w3.org/TR/2001/REC-SVG-20010904/DTD/svg10.dtd">
<svg version="1.0" xmlns="http://www.w3.org/2000/svg"
 width="512.000000pt" height="512.000000pt" viewBox="0 0 512.000000 512.000000"
 preserveAspectRatio="xMidYMid meet">
<metadata>
Created by potrace 1.14, written by Peter Selinger 2001-2017
</metadata>
<g transform="translate(0.000000,512.000000) scale(0.100000,-0.100000)"
fill="#000000" stroke="none">
<path d="M2446 5109 c2 -4 -6 -7 -19 -7 -68 2 -158 -6 -163 -13 -3 -5 -14 -5
-24 1 -24 13 -40 13 -20 0 11 -7 5 -10 -25 -11 -22 -1 -46 -1 -52 0 -7 1 -13
-3 -13 -9 0 -5 -5 -10 -11 -10 -5 0 -7 6 -3 13 6 9 4 9 -7 1 -8 -5 -32 -12
-54 -13 -21 -2 -48 -9 -58 -16 -10 -7 -33 -11 -50 -9 -24 4 -28 2 -17 -5 11
-8 6 -11 -23 -11 -21 0 -36 -4 -33 -9 3 -4 -2 -8 -12 -8 -54 0 -67 -3 -52 -13
21 -13 3 -13 -22 1 -15 8 -19 8 -14 0 4 -7 -1 -11 -13 -11 -10 0 -21 -5 -23
-11 -2 -5 -18 -11 -35 -11 -18 -1 -30 -5 -27 -10 3 -4 -9 -8 -25 -8 -17 0 -31
-4 -31 -10 0 -5 -9 -10 -20 -10 -11 0 -20 -4 -20 -10 0 -5 -9 -10 -20 -10 -11
0 -20 -4 -20 -10 0 -5 -13 -10 -30 -10 -16 0 -30 -4 -30 -10 0 -5 -9 -10 -20
-10 -11 0 -20 -4 -20 -10 0 -5 -7 -10 -15 -10 -9 0 -25 -9 -37 -20 -20 -18
-39 -25 -61 -21 -5 1 -6 -3 -2 -9 3 -5 -1 -10 -9 -10 -9 0 -16 -4 -16 -10 0
-5 -9 -10 -20 -10 -11 0 -20 -4 -20 -10 0 -5 -6 -10 -13 -10 -7 0 -23 -9 -35
-20 -12 -11 -28 -20 -37 -20 -8 0 -15 -4 -15 -10 0 -5 -7 -10 -16 -10 -8 0
-12 -4 -9 -10 3 -5 -1 -10 -10 -10 -10 0 -13 -5 -9 -12 4 -6 3 -8 -4 -4 -6 3
-17 0 -25 -9 -8 -8 -21 -16 -28 -17 -18 -4 -39 -24 -39 -38 0 -6 -4 -8 -10 -5
-5 3 -10 1 -10 -4 0 -6 -7 -11 -16 -11 -8 0 -12 -4 -9 -10 3 -5 0 -10 -7 -10
-8 0 -41 -26 -76 -59 -34 -32 -64 -56 -67 -53 -3 3 -5 -1 -5 -9 0 -8 -14 -21
-32 -28 -18 -8 -27 -16 -19 -19 8 -3 5 -8 -9 -16 -13 -6 -23 -15 -24 -21 0 -5
-21 -29 -46 -53 -24 -24 -57 -62 -71 -84 -17 -26 -29 -35 -32 -26 -4 8 -6 7
-6 -5 -1 -21 -26 -49 -35 -40 -3 4 -6 -4 -6 -17 0 -13 -3 -20 -7 -17 -9 9 -32
-24 -33 -46 0 -10 -4 -15 -10 -12 -5 3 -10 -1 -10 -10 0 -10 -5 -13 -12 -9 -6
4 -8 3 -4 -4 3 -6 0 -16 -7 -24 -7 -7 -16 -21 -20 -30 -3 -10 -11 -18 -17 -18
-6 0 -8 -4 -5 -10 3 -5 1 -10 -4 -10 -6 0 -11 -7 -11 -16 0 -8 -4 -13 -9 -10
-4 3 -8 -4 -7 -17 1 -13 -4 -21 -11 -19 -7 1 -13 -7 -13 -18 0 -11 -4 -20 -10
-20 -5 0 -10 -7 -10 -15 0 -9 -9 -25 -20 -37 -11 -12 -20 -33 -20 -47 0 -21
-2 -23 -10 -11 -8 12 -10 9 -10 -13 0 -17 -4 -26 -10 -22 -6 4 -10 3 -9 -2 1
-4 1 -21 0 -38 -1 -23 -3 -27 -11 -15 -8 12 -10 11 -10 -7 0 -12 -5 -25 -10
-28 -6 -3 -10 -15 -10 -26 0 -10 -4 -19 -10 -19 -5 0 -10 -9 -10 -19 0 -11 -5
-23 -10 -26 -6 -4 -10 -12 -9 -18 3 -23 -1 -38 -8 -34 -5 3 -9 -9 -10 -26 -1
-17 -7 -34 -14 -37 -6 -4 -10 -10 -10 -14 4 -27 -1 -46 -9 -41 -6 4 -10 3 -9
-2 5 -29 -3 -83 -11 -78 -6 3 -10 2 -10 -4 0 -5 6 -12 13 -14 10 -4 10 -6 0
-6 -8 -1 -13 -14 -13 -31 0 -16 -5 -30 -11 -30 -5 0 -8 -4 -5 -8 3 -5 -1 -21
-9 -36 -8 -14 -10 -24 -5 -21 5 3 8 -3 7 -14 0 -11 -5 -17 -9 -15 -4 3 -8 -6
-8 -20 0 -36 -1 -38 -12 -60 -8 -14 -7 -17 4 -11 10 6 11 5 1 -6 -7 -7 -13
-36 -13 -63 0 -36 -3 -47 -10 -36 -7 12 -9 10 -7 -7 0 -12 4 -20 7 -18 4 2 7
-2 7 -10 0 -8 -4 -12 -9 -9 -4 3 -9 -9 -9 -25 -2 -40 -3 -43 -13 -60 -6 -10
-5 -12 2 -7 13 8 16 -6 5 -18 -4 -4 -8 -25 -9 -48 -1 -25 1 -35 7 -27 6 10 8
8 6 -8 0 -12 -5 -19 -9 -17 -13 8 -9 -11 5 -25 9 -11 9 -13 -1 -7 -16 9 -16
-6 1 -23 9 -11 9 -13 0 -7 -17 9 -17 -6 0 -23 10 -11 9 -12 -2 -6 -11 6 -13 4
-7 -11 5 -10 8 -23 8 -29 -1 -5 -3 -27 -5 -47 -2 -21 0 -35 4 -32 4 2 8 -4 8
-13 1 -10 2 -37 2 -60 1 -24 5 -41 8 -38 4 2 8 -2 8 -10 0 -8 -5 -12 -10 -8
-5 3 -4 -4 2 -16 7 -12 11 -27 10 -34 -5 -37 2 -78 12 -71 7 4 7 -1 -1 -16 -7
-13 -8 -20 -2 -16 6 4 11 -2 12 -11 0 -10 1 -37 2 -61 1 -26 4 -38 10 -30 4 8
8 -4 8 -30 0 -32 3 -41 13 -36 7 5 6 0 -3 -11 -9 -11 -10 -16 -2 -11 9 5 12
-2 12 -28 0 -19 5 -38 10 -41 6 -3 10 -17 10 -31 0 -14 4 -22 10 -19 9 6 13
-18 13 -77 0 -10 4 -15 8 -12 5 3 9 -5 9 -18 0 -13 4 -28 9 -33 5 -6 11 -19
13 -30 1 -11 9 -26 16 -33 7 -8 10 -18 7 -23 -4 -5 -1 -9 4 -9 6 0 11 -9 11
-19 0 -11 4 -21 10 -23 5 -2 11 -15 12 -30 1 -15 6 -24 10 -22 4 3 8 -6 8 -20
0 -14 5 -26 10 -26 6 0 10 -7 10 -16 0 -8 4 -13 9 -10 5 3 9 0 8 -7 -1 -32 4
-48 13 -42 9 5 15 -16 11 -38 -1 -5 2 -6 7 -3 5 3 15 -10 22 -29 7 -19 17 -32
22 -29 4 3 8 -2 8 -10 0 -23 3 -29 22 -51 9 -11 17 -24 17 -28 0 -5 9 -17 20
-26 12 -10 21 -26 21 -35 0 -10 4 -14 10 -11 5 3 10 -1 10 -9 0 -9 5 -16 10
-16 6 0 10 -6 10 -13 0 -7 9 -23 20 -35 11 -12 20 -24 20 -28 0 -4 16 -22 36
-40 19 -19 33 -34 29 -34 -3 0 6 -12 20 -26 14 -14 23 -30 19 -35 -3 -5 0 -8
8 -7 7 2 12 -3 11 -9 -2 -7 3 -12 10 -10 6 1 11 -4 10 -10 -2 -7 3 -12 10 -10
6 1 11 -4 9 -11 -1 -8 2 -11 8 -7 5 3 10 1 10 -5 0 -6 5 -8 10 -5 6 4 10 3 9
-2 -3 -20 2 -34 11 -28 5 3 10 -1 10 -10 0 -9 5 -13 10 -10 6 3 10 1 10 -5 0
-6 5 -8 12 -4 6 4 8 3 4 -4 -3 -6 3 -17 14 -25 11 -7 17 -17 12 -21 -4 -4 0
-6 8 -4 8 2 14 -3 12 -10 -1 -8 2 -11 7 -8 13 8 43 -23 35 -36 -4 -6 -2 -8 4
-4 6 3 21 -4 34 -16 13 -13 35 -29 50 -37 15 -8 26 -17 25 -20 -1 -3 2 -7 6
-8 5 -1 17 -11 26 -22 10 -12 26 -21 35 -21 9 0 16 -4 16 -10 0 -5 7 -10 16
-10 8 0 12 -4 9 -10 -3 -5 1 -10 10 -10 10 0 13 -5 9 -13 -4 -6 -4 -9 1 -5 4
4 19 -1 33 -12 13 -11 29 -17 35 -13 6 3 7 1 3 -5 -4 -7 -1 -12 8 -12 9 0 16
-4 16 -10 0 -5 7 -10 15 -10 9 0 25 -9 37 -20 12 -11 28 -20 35 -20 7 0 13 -5
13 -11 0 -5 4 -8 9 -4 5 3 16 -2 24 -10 9 -8 23 -15 32 -15 9 0 13 -4 10 -10
-3 -5 3 -10 15 -10 12 0 19 -4 16 -8 -3 -5 1 -9 9 -10 8 -1 22 -3 30 -4 8 -1
15 -5 15 -10 0 -4 9 -8 20 -8 11 0 20 -4 20 -10 0 -5 10 -10 23 -10 12 0 31
-7 41 -15 10 -8 23 -12 27 -9 5 3 9 0 9 -5 0 -6 9 -11 20 -11 11 0 20 -4 20
-10 0 -5 14 -10 30 -10 17 0 30 -4 30 -10 0 -5 8 -10 18 -10 10 0 24 -6 31
-12 11 -11 12 -10 6 2 -6 12 -5 13 6 3 7 -7 28 -13 47 -13 19 0 31 -4 27 -10
-4 -6 7 -10 25 -10 17 0 29 -3 27 -7 -3 -5 11 -9 30 -10 19 -1 42 -8 51 -15
13 -11 15 -11 7 2 -6 12 -5 13 6 3 7 -7 30 -13 52 -13 21 0 36 -4 33 -8 -3 -5
1 -9 9 -9 8 0 15 5 15 11 0 6 4 6 8 -2 5 -7 29 -13 54 -15 25 -1 44 -5 41 -9
-2 -5 13 -8 34 -8 83 -1 123 -5 123 -13 0 -4 6 -5 13 0 18 11 38 13 31 2 -3
-5 -1 -9 5 -9 5 0 11 5 13 11 3 8 11 8 27 -2 19 -11 25 -11 28 -1 3 6 9 12 14
12 6 0 7 -5 4 -10 -3 -6 -1 -10 4 -10 6 0 11 6 11 13 0 7 3 8 8 2 11 -16 52
-18 52 -3 0 8 3 9 8 3 11 -16 45 -19 37 -3 -6 10 -5 11 6 0 7 -6 20 -12 28
-12 14 0 14 1 1 10 -9 6 -10 10 -3 10 6 0 15 -5 18 -10 3 -6 11 -10 16 -10 6
0 8 4 5 8 -2 4 5 9 17 9 15 2 18 0 9 -6 -8 -5 2 -8 26 -7 22 0 38 4 36 7 -2 3
29 7 68 8 40 1 77 6 82 10 6 5 28 9 50 9 21 1 45 7 54 14 13 11 14 11 8 0 -7
-11 -4 -12 12 -3 11 6 32 11 47 11 14 0 24 3 22 8 -3 4 16 8 41 10 26 2 49 6
52 10 3 4 16 9 30 11 14 1 27 6 30 10 6 7 20 10 55 13 14 1 25 5 25 8 0 3 10
7 22 7 21 2 45 11 90 34 10 5 27 9 38 9 12 0 18 4 15 10 -3 6 4 10 17 10 13 0
34 9 48 20 14 11 35 20 48 20 15 0 21 4 16 12 -5 8 -2 9 9 5 10 -3 17 -2 17 3
0 5 7 6 17 3 11 -4 14 -3 9 5 -5 8 0 12 13 12 12 0 21 5 21 11 0 5 4 8 9 5 4
-3 21 6 37 19 16 14 37 25 47 25 10 0 15 4 12 10 -4 6 6 10 22 10 22 0 25 2
13 10 -12 8 -9 10 13 10 15 0 27 5 27 10 0 6 6 10 13 10 7 0 33 18 57 40 25
22 50 40 57 40 6 0 13 4 15 9 2 5 10 11 18 13 19 4 40 24 40 38 0 6 4 9 9 5 5
-3 16 4 24 15 7 11 17 17 20 13 4 -3 7 -1 7 6 0 7 5 9 10 6 6 -4 9 -1 8 7 -2
7 3 12 10 11 6 -2 12 2 12 7 0 6 8 10 17 10 9 0 14 3 10 6 -6 6 67 80 99 101
11 6 18 16 17 22 -2 6 3 10 10 8 6 -1 11 4 10 10 -2 7 0 12 5 10 4 -1 8 2 9 6
4 13 31 37 43 37 6 0 8 5 5 10 -3 6 1 10 10 10 9 0 13 4 10 10 -3 5 2 10 11
10 10 0 15 3 11 6 -3 3 5 18 18 32 13 14 22 29 19 34 -3 5 0 7 7 6 7 -2 18 7
24 20 5 12 16 22 24 22 8 0 11 3 8 6 -4 4 3 15 15 25 11 11 18 19 13 19 -4 0
-1 7 6 16 7 9 18 26 24 38 7 11 17 20 24 18 7 -1 10 2 7 7 -4 5 1 16 9 24 8 9
15 21 15 27 0 6 5 8 12 4 6 -4 8 -3 4 4 -3 6 0 17 8 25 21 21 56 85 56 103 0
8 5 12 10 9 6 -3 10 3 10 14 0 12 5 21 10 21 6 0 10 9 10 20 0 11 5 20 10 20
6 0 10 7 10 15 0 9 9 25 20 37 11 12 20 30 20 39 0 10 5 21 10 24 6 3 10 16
10 28 0 12 9 33 20 47 11 14 20 35 20 48 0 13 4 20 10 17 6 -3 10 -2 10 4 0 5
-6 12 -12 14 -10 4 -10 6 0 6 6 1 12 7 12 15 0 8 4 16 10 18 5 2 11 14 14 28
2 14 5 25 7 25 1 0 8 34 11 63 1 6 5 12 10 12 4 0 7 3 7 8 -4 22 2 52 9 48 5
-3 9 1 9 9 0 8 -4 12 -9 9 -5 -4 -5 3 1 15 29 56 29 59 18 71 -9 10 -9 11 1 6
8 -5 12 2 12 24 0 17 4 29 8 26 5 -3 9 1 9 9 0 8 -5 12 -10 8 -5 -3 -4 3 1 14
6 11 12 31 14 46 2 14 7 29 11 33 4 4 7 12 7 18 0 6 -5 4 -10 -4 -6 -9 -10
-10 -10 -3 0 6 5 15 11 19 8 4 7 9 -2 15 -10 6 -11 9 -1 9 8 0 12 17 12 49 0
28 5 53 10 56 8 5 7 12 -2 23 -7 9 -8 13 -2 10 7 -5 10 64 11 223 1 126 -2
227 -6 224 -4 -2 -8 2 -8 10 0 8 3 12 7 10 4 -2 7 2 7 10 0 8 -4 12 -9 9 -7
-4 -14 63 -9 90 1 4 -4 15 -11 24 -11 13 -11 14 2 7 12 -7 13 -6 3 6 -7 9 -14
37 -14 62 -1 25 -5 44 -9 42 -6 -4 -11 31 -11 77 0 10 -4 20 -10 23 -5 4 -9
23 -9 43 0 28 -3 33 -10 22 -8 -12 -10 -8 -10 15 0 48 -3 65 -12 65 -4 0 -8
15 -8 34 0 19 -4 38 -10 41 -5 3 -10 15 -10 26 0 10 -4 19 -10 19 -5 0 -10 9
-10 20 0 11 -6 20 -12 20 -9 0 -8 4 2 10 10 6 11 10 3 10 -7 0 -13 9 -13 20 0
11 -4 20 -10 20 -5 0 -10 9 -10 20 0 11 -5 20 -10 20 -6 0 -9 3 -9 8 4 24 -2
52 -11 47 -5 -3 -10 2 -10 12 0 23 -22 73 -32 73 -5 0 -8 12 -8 26 0 14 -4 23
-10 19 -5 -3 -10 3 -10 14 0 12 -4 21 -8 21 -5 0 -15 12 -22 28 -8 15 -21 35
-30 46 -8 10 -14 20 -13 22 4 11 -11 43 -18 38 -5 -3 -9 2 -9 10 0 9 -5 16
-11 16 -5 0 -7 5 -4 10 3 6 1 10 -6 10 -7 0 -10 3 -6 6 5 6 -10 28 -45 65 -9
9 -14 20 -11 23 4 3 1 6 -5 6 -7 0 -12 9 -12 20 0 11 -3 19 -7 18 -5 -2 -9 1
-10 5 -1 4 -20 25 -43 47 -22 21 -40 44 -40 50 0 6 -5 8 -12 4 -7 -4 -8 -3 -4
4 9 15 -281 305 -296 296 -7 -4 -8 -3 -4 4 4 7 1 12 -9 12 -9 0 -13 5 -10 10
3 6 -1 10 -9 10 -9 0 -16 5 -16 10 0 6 -8 10 -17 10 -9 0 -14 3 -10 6 9 9 -13
28 -50 44 -17 8 -29 18 -27 22 3 4 -4 8 -16 8 -12 0 -18 5 -15 10 3 6 1 10 -5
10 -6 0 -20 9 -32 20 -12 11 -28 20 -35 20 -7 0 -13 5 -13 10 0 6 -7 10 -16
10 -9 0 -12 5 -8 12 4 6 3 8 -4 4 -6 -3 -17 1 -25 9 -9 8 -20 15 -25 15 -18 0
-62 27 -55 33 3 4 -1 7 -10 7 -19 0 -89 37 -98 52 -3 5 -9 9 -13 9 -26 -4 -46
1 -41 9 5 9 -15 15 -37 11 -5 0 -8 4 -8 9 0 6 -15 10 -32 10 -25 0 -29 3 -18
10 12 8 9 10 -13 10 -16 0 -26 4 -23 8 2 4 -3 9 -12 10 -28 3 -152 48 -147 53
4 4 -34 9 -82 12 -7 0 -13 4 -13 9 0 4 -15 8 -34 8 -19 0 -38 5 -41 10 -3 6
-19 10 -36 10 -16 0 -29 5 -29 10 0 6 -5 10 -11 10 -5 0 -7 -5 -4 -11 5 -7 1
-7 -14 0 -12 6 -30 16 -42 22 -15 7 -19 7 -14 0 3 -6 1 -11 -4 -11 -6 0 -11 4
-11 8 0 4 -10 9 -22 9 -28 2 -84 10 -118 18 -21 5 -22 4 -5 -4 15 -7 16 -10 4
-10 -8 -1 -19 3 -25 9 -5 5 -37 11 -71 12 -34 1 -60 5 -58 8 2 4 -2 7 -10 7
-8 0 -12 -4 -9 -9 3 -4 1 -8 -5 -8 -5 0 -12 4 -15 8 -6 10 -57 9 -74 -2 -8 -5
-18 -4 -25 3 -13 13 -31 15 -23 2 4 -5 -2 -8 -11 -6 -10 2 -18 4 -18 5 0 1
-21 3 -47 4 -26 1 -45 -1 -42 -5z m-409 -65 c-3 -3 -12 -4 -19 -1 -8 3 -5 6 6
6 11 1 17 -2 13 -5z"/>
</g>
</svg>
